<svg width="21" height="21" viewBox="0 0 21 21" fill="none" xmlns="http://www.w3.org/2000/svg">
<path d="M19.25 19.25H1.75C1.39125 19.25 1.09375 18.9525 1.09375 18.5938C1.09375 18.235 1.39125 17.9375 1.75 17.9375H19.25C19.6087 17.9375 19.9062 18.235 19.9062 18.5938C19.9062 18.9525 19.6087 19.25 19.25 19.25Z" fill="#1A1A1A"/>
<path d="M8.53125 3.5V19.25H12.4688V3.5C12.4688 2.5375 12.075 1.75 10.8937 1.75H10.1063C8.925 1.75 8.53125 2.5375 8.53125 3.5Z" fill="#1A1A1A"/>
<path d="M2.625 8.75V19.25H6.125V8.75C6.125 7.7875 5.775 7 4.725 7H4.025C2.975 7 2.625 7.7875 2.625 8.75Z" fill="#1A1A1A"/>
<path d="M14.875 13.125V19.25H18.375V13.125C18.375 12.1625 18.025 11.375 16.975 11.375H16.275C15.225 11.375 14.875 12.1625 14.875 13.125Z" fill="#1A1A1A"/>
</svg>
