<svg width="20" height="18" viewBox="0 0 20 18" fill="none" xmlns="http://www.w3.org/2000/svg">
<path d="M9.5386 16.3125C5.04391 16.3125 1.38452 12.8625 1.38452 8.625C1.38452 4.3875 5.04391 0.9375 9.5386 0.9375C14.0333 0.9375 17.6927 4.3875 17.6927 8.625C17.6927 12.8625 14.0333 16.3125 9.5386 16.3125ZM9.5386 2.0625C5.69624 2.0625 2.5778 5.01 2.5778 8.625C2.5778 12.24 5.69624 15.1875 9.5386 15.1875C13.381 15.1875 16.4994 12.24 16.4994 8.625C16.4994 5.01 13.381 2.0625 9.5386 2.0625Z" fill="#7A7A7A"/>
<path d="M17.8916 17.0626C17.7404 17.0626 17.5893 17.0101 17.4699 16.8976L15.8789 15.3976C15.6482 15.1801 15.6482 14.8201 15.8789 14.6026C16.1096 14.3851 16.4914 14.3851 16.7221 14.6026L18.3132 16.1026C18.5439 16.3201 18.5439 16.6801 18.3132 16.8976C18.1939 17.0101 18.0427 17.0626 17.8916 17.0626Z" fill="#7A7A7A"/>
</svg>
