<svg width="36" height="48" viewBox="0 0 36 48" fill="none" xmlns="http://www.w3.org/2000/svg">
<path d="M33 18C33 9.71573 26.2843 3 18 3C9.71573 3 3 9.71573 3 18C3 26.2843 9.71573 33 18 33C26.2843 33 33 26.2843 33 18Z" stroke="#7A7A7A" stroke-width="2.25"/>
<path d="M14.25 13.0771C14.4523 12.5437 14.7579 12.0656 15.1409 11.6703C15.8421 10.9464 16.8026 10.5 17.862 10.5C20.0093 10.5 21.75 12.3338 21.75 14.596C21.75 16.5896 20.3979 18.2506 18.6071 18.6168C18.2013 18.6998 17.862 19.0277 17.862 19.442V21" stroke="#7A7A7A" stroke-width="2.25" stroke-linecap="round"/>
<path d="M18 27.3749C18.8284 27.3749 19.5 26.7034 19.5 25.875C19.5 25.0466 18.8284 24.375 18 24.375C17.1716 24.375 16.5 25.0466 16.5 25.875C16.5 26.7034 17.1716 27.3749 18 27.3749Z" fill="#7A7A7A"/>
</svg>
