<svg width="36" height="42" viewBox="0 0 36 42" fill="none" xmlns="http://www.w3.org/2000/svg">
<path d="M21.75 28.4375H14.25C7.4625 28.4375 4.5625 25.5375 4.5625 18.75V11.25C4.5625 4.4625 7.4625 1.5625 14.25 1.5625H21.75C28.5375 1.5625 31.4375 4.4625 31.4375 11.25V18.75C31.4375 19.05 31.4375 19.3625 31.4125 19.65C31.375 20.025 31.1125 20.35 30.75 20.4625C30.3875 20.575 29.9875 20.45 29.75 20.15C28.8625 19.0625 27.55 18.4375 26.125 18.4375C25.0625 18.4375 24.025 18.8 23.2 19.4625C22.075 20.35 21.4375 21.675 21.4375 23.125C21.4375 24.5375 22.0625 25.8625 23.15 26.75C23.45 26.9875 23.5625 27.3875 23.4625 27.75C23.35 28.1125 23.0375 28.375 22.65 28.4125C22.3625 28.4375 22.05 28.4375 21.75 28.4375ZM14.25 3.4375C8.4875 3.4375 6.4375 5.4875 6.4375 11.25V18.75C6.4375 24.5125 8.4875 26.5625 14.25 26.5625H20.525C19.9 25.55 19.5625 24.3625 19.5625 23.125C19.5625 21.1 20.4625 19.2375 22.0375 18C24.1375 16.3 27.325 16.15 29.5625 17.525V11.25C29.5625 5.4875 27.5125 3.4375 21.75 3.4375H14.25Z" fill="#7A7A7A"/>
<path d="M29.8501 9.82495H6.15002C5.63752 9.82495 5.21252 9.39995 5.21252 8.88745C5.21252 8.37495 5.63752 7.94995 6.15002 7.94995H29.8501C30.3626 7.94995 30.7876 8.37495 30.7876 8.88745C30.7876 9.39995 30.3751 9.82495 29.8501 9.82495Z" fill="#7A7A7A"/>
<path d="M13.65 9.64993C13.1375 9.64993 12.7125 9.22493 12.7125 8.71243V2.63745C12.7125 2.12495 13.1375 1.69995 13.65 1.69995C14.1625 1.69995 14.5875 2.12495 14.5875 2.63745V8.71243C14.5875 9.22493 14.1625 9.64993 13.65 9.64993Z" fill="#7A7A7A"/>
<path d="M22.35 9.08749C21.8375 9.08749 21.4125 8.66249 21.4125 8.14999V2.63745C21.4125 2.12495 21.8375 1.69995 22.35 1.69995C22.8625 1.69995 23.2875 2.12495 23.2875 2.63745V8.14999C23.2875 8.67499 22.875 9.08749 22.35 9.08749Z" fill="#7A7A7A"/>
<path d="M26.125 29.6875C24.6 29.6875 23.125 29.1625 21.9625 28.2C20.4375 26.9625 19.5625 25.1125 19.5625 23.125C19.5625 21.1 20.4625 19.2375 22.0375 18C23.1875 17.075 24.6375 16.5625 26.125 16.5625C28.1125 16.5625 29.9625 17.4375 31.2 18.975C32.15 20.125 32.6875 21.6 32.6875 23.125C32.6875 24.9875 31.875 26.7875 30.4625 28.05C29.2375 29.1125 27.7 29.6875 26.125 29.6875ZM26.125 18.4375C25.0625 18.4375 24.025 18.8 23.2 19.4625C22.075 20.35 21.4375 21.675 21.4375 23.125C21.4375 24.5375 22.0625 25.8625 23.15 26.75C24.85 28.1625 27.4875 28.15 29.225 26.6375C30.225 25.7375 30.8125 24.45 30.8125 23.125C30.8125 22.0375 30.4375 20.9875 29.75 20.1625C28.8625 19.0625 27.5375 18.4375 26.125 18.4375Z" fill="#7A7A7A"/>
<path d="M24.7247 25.475C24.4122 25.475 24.0997 25.3125 23.9247 25.025C23.6622 24.575 23.7997 24 24.2497 23.7375L25.5497 22.9625V21.3875C25.5497 20.875 25.9747 20.45 26.4872 20.45C26.9997 20.45 27.4247 20.875 27.4247 21.3875V23.5C27.4247 23.825 27.2497 24.1375 26.9747 24.3L25.2122 25.35C25.0497 25.425 24.8872 25.475 24.7247 25.475Z" fill="#7A7A7A"/>
</svg>
