<svg width="36" height="48" viewBox="0 0 36 48" fill="none" xmlns="http://www.w3.org/2000/svg">
<path d="M18 23.625C14.895 23.625 12.375 21.105 12.375 18C12.375 14.895 14.895 12.375 18 12.375C21.105 12.375 23.625 14.895 23.625 18C23.625 21.105 21.105 23.625 18 23.625ZM18 14.625C16.14 14.625 14.625 16.14 14.625 18C14.625 19.86 16.14 21.375 18 21.375C19.86 21.375 21.375 19.86 21.375 18C21.375 16.14 19.86 14.625 18 14.625Z" fill="#7A7A7A"/>
<path d="M22.815 33.2849C22.5 33.2849 22.185 33.2399 21.87 33.1649C20.94 32.9099 20.16 32.3249 19.665 31.4999L19.485 31.1999C18.6 29.6699 17.385 29.6699 16.5 31.1999L16.335 31.4849C15.84 32.3249 15.06 32.9249 14.13 33.1649C13.185 33.4199 12.21 33.2849 11.385 32.7899L8.805 31.3049C7.89 30.7799 7.23 29.9249 6.945 28.8899C6.675 27.8549 6.81 26.7899 7.335 25.8749C7.77 25.1099 7.89 24.4199 7.635 23.9849C7.38 23.5499 6.735 23.2949 5.85 23.2949C3.66 23.2949 1.875 21.5099 1.875 19.3199V16.6799C1.875 14.4899 3.66 12.7049 5.85 12.7049C6.735 12.7049 7.38 12.4499 7.635 12.0149C7.89 11.5799 7.785 10.8899 7.335 10.1249C6.81 9.20994 6.675 8.12994 6.945 7.10994C7.215 6.07494 7.875 5.21994 8.805 4.69494L11.4 3.20994C13.095 2.20494 15.33 2.78994 16.35 4.51494L16.53 4.81494C17.415 6.34494 18.63 6.34494 19.515 4.81494L19.68 4.52994C20.7 2.78994 22.935 2.20494 24.645 3.22494L27.225 4.70994C28.14 5.23494 28.8 6.08994 29.085 7.12494C29.355 8.15994 29.22 9.22494 28.695 10.1399C28.26 10.9049 28.14 11.5949 28.395 12.0299C28.65 12.4649 29.295 12.7199 30.18 12.7199C32.37 12.7199 34.155 14.5049 34.155 16.6949V19.3349C34.155 21.5249 32.37 23.3099 30.18 23.3099C29.295 23.3099 28.65 23.5649 28.395 23.9999C28.14 24.4349 28.245 25.1249 28.695 25.8899C29.22 26.8049 29.37 27.8849 29.085 28.9049C28.815 29.9399 28.155 30.7949 27.225 31.3199L24.63 32.8049C24.06 33.1199 23.445 33.2849 22.815 33.2849ZM18 27.7349C19.335 27.7349 20.58 28.5749 21.435 30.0599L21.6 30.3449C21.78 30.6599 22.08 30.8849 22.44 30.9749C22.8 31.0649 23.16 31.0199 23.46 30.8399L26.055 29.3399C26.445 29.1149 26.745 28.7399 26.865 28.2899C26.985 27.8399 26.925 27.3749 26.7 26.9849C25.845 25.5149 25.74 23.9999 26.4 22.8449C27.06 21.6899 28.425 21.0299 30.135 21.0299C31.095 21.0299 31.86 20.2649 31.86 19.3049V16.6649C31.86 15.7199 31.095 14.9399 30.135 14.9399C28.425 14.9399 27.06 14.2799 26.4 13.1249C25.74 11.9699 25.845 10.4549 26.7 8.98494C26.925 8.59494 26.985 8.12994 26.865 7.67994C26.745 7.22994 26.46 6.86994 26.07 6.62994L23.475 5.14494C22.83 4.75494 21.975 4.97994 21.585 5.63994L21.42 5.92494C20.565 7.40994 19.32 8.24994 17.985 8.24994C16.65 8.24994 15.405 7.40994 14.55 5.92494L14.385 5.62494C14.01 4.99494 13.17 4.76994 12.525 5.14494L9.93 6.64494C9.54 6.86994 9.24 7.24494 9.12 7.69494C9 8.14494 9.06 8.60994 9.285 8.99994C10.14 10.4699 10.245 11.9849 9.585 13.1399C8.925 14.2949 7.56 14.9549 5.85 14.9549C4.89 14.9549 4.125 15.7199 4.125 16.6799V19.3199C4.125 20.2649 4.89 21.0449 5.85 21.0449C7.56 21.0449 8.925 21.7049 9.585 22.8599C10.245 24.0149 10.14 25.5299 9.285 26.9999C9.06 27.3899 9 27.8549 9.12 28.3049C9.24 28.7549 9.525 29.1149 9.915 29.3549L12.51 30.8399C12.825 31.0349 13.2 31.0799 13.545 30.9899C13.905 30.8999 14.205 30.6599 14.4 30.3449L14.565 30.0599C15.42 28.5899 16.665 27.7349 18 27.7349Z" fill="#7A7A7A"/>
</svg>
